<?xml version="1.0" encoding="utf-8"?>
<!-- Generator: Adobe Illustrator 23.0.3, SVG Export Plug-In . SVG Version: 6.00 Build 0)  -->
<svg version="1.1" id="Layer_1" xmlns="http://www.w3.org/2000/svg" xmlns:xlink="http://www.w3.org/1999/xlink" x="0px" y="0px"
	 viewBox="0 0 7680 4320" style="enable-background:new 0 0 7680 4320;" xml:space="preserve">
<style type="text/css">
	.st0{fill-rule:evenodd;clip-rule:evenodd;fill:#FFFFFF;}
</style>
<path class="st0" d="M2452.05,2816.38l-95.14-262.76h-446.4l-90.92,262.76h-255.51l518.28-1313.81h101.47l521.91,1313.81H2452.05
	L2452.05,2816.38z M2133.11,1899.42l-156.75,478.42h313.2L2133.11,1899.42L2133.11,1899.42z M3577.42,2338.87v477.51h-230.15
	V1521.28c153.43-6.33,243.13-9.65,269.1-9.65c205.07,0,354.88,31.41,449.41,94.22c94.84,62.83,142.25,160.68,142.25,293.87
	c0,296.89-175.47,445.49-526.13,445.49C3655.95,2345.21,3621.21,2343.1,3577.42,2338.87L3577.42,2338.87z M3577.42,1720.93v413.18
	c38.96,4.23,69.77,6.33,92.12,6.33c105.1,0,181.82-17.51,230.44-52.55c48.33-34.74,72.5-91.81,72.5-170.34
	c0-134.1-108.43-201.14-324.98-201.14C3623.32,1716.4,3599.77,1717.91,3577.42,1720.93L3577.42,1720.93z M5215.02,1725.45v302.63
	h420.41v195.73h-420.41v387.79h588.94v204.78h-819.09V1520.69h819.09v204.76H5215.02L5215.02,1725.45z M7354.58,2816.38
	l-346.72-534.59c-35.03-0.61-83.66-2.72-146.19-6.35v540.93h-239.19v-1296.9c12.98,0,62.81-2.11,149.49-6.65
	c86.98-4.52,156.75-6.64,209.91-6.64c329.52,0,494.12,127.75,494.12,382.97c0,76.72-22.65,146.79-68.26,210.21
	c-45.29,63.12-102.69,107.83-171.54,133.79l382.97,583.22H7354.58L7354.58,2816.38z M6861.68,1720.02v360.63
	c42.59,3.62,74.91,5.44,97.26,5.44c96.34,0,166.41-13.59,211.11-40.78c44.39-27.18,66.75-80.03,66.75-158.56
	c0-64.03-23.85-108.73-71.58-134.1c-47.72-25.37-122.92-38.06-225.61-38.06C6914.83,1714.58,6888.87,1716.4,6861.68,1720.02
	L6861.68,1720.02z M922.57,2436.82v-915.54H61.84v204.76h630.58v694.07c0,29.95,7.58,190.89-200.22,190.89
	c-131.93,0-194.83-87.07-194.83-190.89H62.02c-3.06,127.05,31.82,238.68,142.03,311.69c67.7,44.99,163.1,86.63,288.15,86.63
	c125.05,0,220.45-41.65,288.15-86.63C885.72,2662.01,922.23,2556.92,922.57,2436.82z"/>
</svg>
