<?xml version="1.0" encoding="utf-8"?>
<!-- Generator: Adobe Illustrator 23.0.3, SVG Export Plug-In . SVG Version: 6.00 Build 0)  -->
<svg version="1.1" id="Layer_1" xmlns="http://www.w3.org/2000/svg" xmlns:xlink="http://www.w3.org/1999/xlink" x="0px" y="0px"
	 viewBox="0 0 7680 4320" style="enable-background:new 0 0 7680 4320;" xml:space="preserve">
<style type="text/css">
	.st0{fill-rule:evenodd;clip-rule:evenodd;fill:#FFFFFF;}
</style>
<path class="st0" d="M6158.62,560.68v2000.42c8.57,735.83-1091.33,1550.6-1617.45,1725.08
	C3956,4073.6,2927.35,3265.52,2933.45,2547.13l462.16,0.86c-0.49,263.36,312.28,606.45,492.19,772.58
	c175.7,162.24,422.18,347.65,657.58,464.64c242.77-118.74,514.3-326.86,685.46-486.92c169.42-158.44,466.66-485.74,465.63-735.29
	V895.4l-1143-375.16l-1617.9,531.03l0.69-486.64l1617.21-530.8l1596.82,524.11L6158.62,560.68z"/>
<path class="st0" d="M2455.93,2134.68l-50.96-140.74h-239.1l-48.7,140.74h-136.86l277.6-703.71h54.35l279.55,703.71H2455.93
	L2455.93,2134.68z M2285.1,1643.54l-83.96,256.25h167.76L2285.1,1643.54L2285.1,1643.54z M3058.71,1878.91v255.77h-123.27v-693.69
	c82.18-3.39,130.23-5.17,144.14-5.17c109.84,0,190.08,16.83,240.72,50.47c50.8,33.65,76.19,86.07,76.19,157.4
	c0,159.02-93.99,238.62-281.81,238.62C3100.77,1882.31,3082.17,1881.18,3058.71,1878.91L3058.71,1878.91z M3058.71,1547.93v221.31
	c20.87,2.26,37.37,3.39,49.34,3.39c56.29,0,97.39-9.38,123.43-28.15c25.89-18.61,38.83-49.18,38.83-91.24
	c0-71.83-58.08-107.74-174.07-107.74C3083.3,1545.5,3070.68,1546.31,3058.71,1547.93L3058.71,1547.93z M3935.85,1550.35v162.1
	h225.18v104.84h-225.18V2025h315.45v109.69h-438.72v-694h438.72v109.68H3935.85L3935.85,1550.35z M5081.86,2134.68l-185.71-286.34
	c-18.76-0.32-44.81-1.45-78.3-3.4v289.74h-128.12v-694.65c6.95,0,33.64-1.13,80.07-3.56c46.59-2.42,83.96-3.55,112.43-3.55
	c176.5,0,264.66,68.43,264.66,205.13c0,41.09-12.13,78.62-36.56,112.59c-24.26,33.81-55,57.76-91.88,71.66l205.13,312.39H5081.86
	L5081.86,2134.68z M4817.84,1547.44v193.16c22.81,1.94,40.13,2.91,52.1,2.91c51.6,0,89.13-7.28,113.08-21.84
	c23.78-14.56,35.75-42.87,35.75-84.93c0-34.29-12.78-58.24-38.34-71.83c-25.56-13.59-65.84-20.39-120.84-20.39
	C4846.32,1544.53,4832.41,1545.5,4817.84,1547.44L4817.84,1547.44z M1636.7,1931.38v-490.38h-461.03v109.68h337.76v371.76
	c0,16.04,4.06,102.24-107.24,102.24c-70.67,0-104.36-46.64-104.36-102.24h-126.06c-1.64,68.05,17.04,127.84,76.08,166.95
	c36.26,24.1,87.36,46.4,154.34,46.4c66.98,0,118.08-22.31,154.34-46.4C1616.96,2052,1636.52,1995.71,1636.7,1931.38z"/>
</svg>
